<svg width="106" height="106" viewBox="0 0 106 106" fill="none" xmlns="http://www.w3.org/2000/svg">
<path opacity="0.456731" fill-rule="evenodd" clip-rule="evenodd" d="M60.25 53.125C60.25 57.1981 56.9481 60.5 52.875 60.5C48.8019 60.5 45.5 57.1981 45.5 53.125C45.5 49.0519 48.8019 45.75 52.875 45.75C56.9481 45.75 60.25 49.0519 60.25 53.125ZM72.75 53.125C72.75 64.1017 63.8517 73 52.875 73C41.8983 73 33 64.1017 33 53.125C33 42.1483 41.8983 33.25 52.875 33.25C63.8517 33.25 72.75 42.1483 72.75 53.125Z" fill="url(#paint0_linear_1_3)"/>
<path fill-rule="evenodd" clip-rule="evenodd" d="M72.75 53.125C72.75 64.1017 63.8517 73 52.875 73C41.8983 73 33 64.1017 33 53.125C33 42.1483 41.8983 33.25 52.875 33.25C63.8517 33.25 72.75 42.1483 72.75 53.125ZM104.75 53.125C104.75 81.7748 81.5248 105 52.875 105C24.2252 105 1 81.7748 1 53.125C1 24.4752 24.2252 1.25 52.875 1.25C81.5248 1.25 104.75 24.4752 104.75 53.125V53.125Z" fill="url(#paint1_linear_1_3)"/>
<path fill-rule="evenodd" clip-rule="evenodd" d="M52.875 0.762817C23.955 0.762817 0.5 24.2178 0.5 53.1378C0.5 82.0578 23.955 105.513 52.875 105.513C81.795 105.513 105.25 82.0578 105.25 53.1378C105.25 24.2178 81.795 0.762817 52.875 0.762817ZM52.875 1.76282C81.2546 1.76282 104.25 24.7583 104.25 53.1378C104.25 81.5174 81.2546 104.513 52.875 104.513C24.4954 104.513 1.5 81.5174 1.5 53.1378C1.5 24.7583 24.4954 1.76282 52.875 1.76282Z" fill="url(#paint2_linear_1_3)"/>
<path d="M52.875 32.7628C41.6281 32.7628 32.5 41.8909 32.5 53.1378C32.5 64.3847 41.6281 73.5128 52.875 73.5128C64.1219 73.5128 73.25 64.3847 73.25 53.1378C73.25 41.8909 64.1219 32.7628 52.875 32.7628ZM52.875 33.7628C63.5814 33.7628 72.25 42.4314 72.25 53.1378C72.25 63.8443 63.5814 72.5128 52.875 72.5128C42.1686 72.5128 33.5 63.8443 33.5 53.1378C33.5 42.4314 42.1686 33.7628 52.875 33.7628ZM52.875 45.2628C48.5317 45.2628 45 48.7945 45 53.1378C45 57.4811 48.5317 61.0128 52.875 61.0128C57.2183 61.0128 60.75 57.4811 60.75 53.1378C60.75 48.7945 57.2183 45.2628 52.875 45.2628ZM52.875 46.2628C56.6779 46.2628 59.75 49.3349 59.75 53.1378C59.75 56.9407 56.6779 60.0128 52.875 60.0128C49.0721 60.0128 46 56.9407 46 53.1378C46 49.3349 49.0721 46.2628 52.875 46.2628Z" fill="url(#paint3_linear_1_3)"/>
<defs>
<linearGradient id="paint0_linear_1_3" x1="-0.250002" y1="-1.87497" x2="110.5" y2="115.375" gradientUnits="userSpaceOnUse">
<stop stop-color="#CCCCCC"/>
<stop offset="0.239796" stop-color="#E6E6E6"/>
<stop offset="0.497613" stop-color="#CCCCCC"/>
<stop offset="0.750535" stop-color="#CCCCCC"/>
<stop offset="1" stop-color="#CCCCCC"/>
</linearGradient>
<linearGradient id="paint1_linear_1_3" x1="1" y1="1.25" x2="104.75" y2="105" gradientUnits="userSpaceOnUse">
<stop stop-color="#CCCCCC"/>
<stop offset="0.239796" stop-color="#E6E6E6"/>
<stop offset="0.497613" stop-color="#F9F9F9"/>
<stop offset="0.750535" stop-color="#CCCCCC"/>
<stop offset="1" stop-color="#CCCCCC"/>
</linearGradient>
<linearGradient id="paint2_linear_1_3" x1="-13.4015" y1="-13.1387" x2="119.152" y2="119.414" gradientUnits="userSpaceOnUse">
<stop stop-color="#4D4D4D"/>
<stop offset="0.239796" stop-color="#808080"/>
<stop offset="0.497613" stop-color="#CCCCCC"/>
<stop offset="0.750535" stop-color="#808080"/>
<stop offset="1" stop-color="#4D4D4D"/>
</linearGradient>
<linearGradient id="paint3_linear_1_3" x1="12.5" y1="6.13782" x2="91.5" y2="107.888" gradientUnits="userSpaceOnUse">
<stop stop-color="#4D4D4D"/>
<stop offset="0.239796" stop-color="#808080"/>
<stop offset="0.497613" stop-color="#B3B3B3"/>
<stop offset="0.750535" stop-color="#808080"/>
<stop offset="1" stop-color="#4D4D4D"/>
</linearGradient>
</defs>
</svg>
